<svg xmlns="http://www.w3.org/2000/svg" viewBox="0 0 100 100" width="200" height="200">
  <path d="M 20 10
           L 60 10
           L 58 15 L 63 18 L 60 22 L 65 25 L 62 30 L 65 35
           L 70 32 L 75 36 L 80 34 L 85 38 L 90 35
           L 90 80
           Q 90 90 80 90
           L 20 90
           Q 10 90 10 80
           L 10 20
           Q 10 10 20 10 Z"
        fill="#F4B400"/>

  <circle cx="50" cy="48" r="18" fill="#FFFFFF"/>

  <!-- main crack line -->
  <polyline points="58,33 55,36 59,39 54,43 57,46 54,49"
        fill="none" stroke="#4B4B4B" stroke-width="1.2" stroke-linecap="round" stroke-linejoin="round"/>
  <!-- small branch -->
  <polyline points="59,39 62,41"
        fill="none" stroke="#4B4B4B" stroke-width="0.8" stroke-linecap="round"/>
  <!-- small branch -->
  <polyline points="54,43 51,44"
        fill="none" stroke="#4B4B4B" stroke-width="0.7" stroke-linecap="round"/>

  <rect x="38" y="70" width="24" height="6" fill="#FFFFFF"/>
</svg>
